<svg xmlns="http://www.w3.org/2000/svg" version="1.1" xmlns:xlink="http://www.w3.org/1999/xlink" xmlns:svgjs="http://svgjs.com/svgjs" width="1440" height="560" preserveAspectRatio="none" viewBox="0 0 1440 560"><g mask="url(&quot;#SvgjsMask1021&quot;)" fill="none"><rect width="1440" height="560" x="0" y="0" fill="rgba(37, 37, 37, 1)"></rect><path d="M0,386.087C83.36,398.861,174.471,427.222,247.874,385.7C321.793,343.886,348.369,252.185,377.643,172.464C405.087,97.728,413.966,20.445,411.219,-59.124C408.184,-147.033,407.623,-238.194,360.894,-312.716C310.468,-393.134,235.493,-465.712,142.972,-486.919C51.852,-507.805,-38.291,-460.151,-124.489,-423.97C-202.361,-391.284,-276.227,-351.099,-331.902,-287.595C-387.798,-223.839,-424.304,-146.554,-440.646,-63.355C-457.602,22.972,-473.262,120.227,-426.665,194.851C-380.849,268.223,-282.364,281.161,-203.428,316.541C-136.682,346.457,-72.3,375.007,0,386.087" fill="#1e1e1e"></path><path d="M1440 1044.4940000000001C1542.206 1056.054 1645.278 1064.952 1741.969 1029.873 1854.416 989.077 1979.999 938.0989999999999 2031.22 830.001 2082.5119999999997 721.752 2022.292 597.275 2002.966 479.058 1984.049 363.345 1997.278 232.24200000000002 1919.199 144.772 1841.3310000000001 57.53800000000001 1712.445 44.49199999999996 1597.231 24.519999999999982 1492.787 6.414999999999964 1386.771 2.586999999999989 1285.84 34.98000000000002 1186.551 66.846 1109.356 136.652 1031.5439999999999 206.07100000000003 942.852 285.197 840.603 356.183 800.419 468.04200000000003 756.184 591.176 720.122 748.431 799.282 852.606 880.857 959.96 1049.791 927.5129999999999 1178.954 966.196 1267.779 992.798 1347.864 1034.0729999999999 1440 1044.4940000000001" fill="#2c2c2c"></path></g><defs><mask id="SvgjsMask1021"><rect width="1440" height="560" fill="#ffffff"></rect></mask></defs></svg>