<?xml version="1.0" encoding="UTF-8" standalone="no"?>
<svg
   xmlns:dc="http://purl.org/dc/elements/1.1/"
   xmlns:cc="http://creativecommons.org/ns#"
   xmlns:rdf="http://www.w3.org/1999/02/22-rdf-syntax-ns#"
   xmlns:svg="http://www.w3.org/2000/svg"
   xmlns="http://www.w3.org/2000/svg"
   xmlns:xlink="http://www.w3.org/1999/xlink"
   xmlns:sodipodi="http://sodipodi.sourceforge.net/DTD/sodipodi-0.dtd"
   xmlns:inkscape="http://www.inkscape.org/namespaces/inkscape"
   width="159.34264mm"
   height="314.36923mm"
   viewBox="0 0 159.34264 314.36923"
   version="1.1"
   id="svg1205"
   inkscape:version="1.0.1 (3bc2e813f5, 2020-09-07)">
  <defs
     id="defs1199">
    <linearGradient
       inkscape:collect="always"
       xlink:href="#linearGradient1183"
       id="linearGradient1185"
       x1="-11.224609"
       y1="662.4082"
       x2="214.28737"
       y2="1140.2797"
       gradientUnits="userSpaceOnUse"
       gradientTransform="matrix(0.65853926,0,0,0.65853926,48.497052,-430.12069)" />
    <linearGradient
       inkscape:collect="always"
       id="linearGradient1183">
      <stop
         style="stop-color:#f3ff33;stop-opacity:1"
         offset="0"
         id="stop1179" />
      <stop
         style="stop-color:#f32700;stop-opacity:1"
         offset="1"
         id="stop1181" />
    </linearGradient>
  </defs>
  <sodipodi:namedview
     id="base"
     pagecolor="#ffffff"
     bordercolor="#666666"
     borderopacity="1.0"
     inkscape:pageopacity="0.0"
     inkscape:pageshadow="2"
     inkscape:zoom="0.24748737"
     inkscape:cx="286.83421"
     inkscape:cy="536.94074"
     inkscape:document-units="px"
     inkscape:current-layer="layer1"
     inkscape:document-rotation="0"
     showgrid="false"
     fit-margin-top="0"
     fit-margin-left="0"
     fit-margin-right="0"
     fit-margin-bottom="0"
     inkscape:window-width="1366"
     inkscape:window-height="705"
     inkscape:window-x="-8"
     inkscape:window-y="-8"
     inkscape:window-maximized="1" />
  <metadata
     id="metadata1202">
    <rdf:RDF>
      <cc:Work
         rdf:about="">
        <dc:format>image/svg+xml</dc:format>
        <dc:type
           rdf:resource="http://purl.org/dc/dcmitype/StillImage" />
        <dc:title></dc:title>
      </cc:Work>
    </rdf:RDF>
  </metadata>
  <g
     inkscape:label="Capa 1"
     inkscape:groupmode="layer"
     id="layer1"
     transform="translate(-29.941781,-6.1010963)">
    <path
       id="path1038"
       style="fill:url(#linearGradient1185);fill-opacity:1;stroke:none;stroke-width:0.264583px;stroke-linecap:butt;stroke-linejoin:miter;stroke-opacity:1"
       d="m 41.105206,6.1010963 c 0,0 5.645418,4.2406667 13.388155,12.8286657 7.793087,8.64384 17.175519,21.531539 23.380718,38.38306 4.63659,12.883848 7.358848,27.889758 5.588579,41.777388 -0.37747,-0.01201 -0.582652,-0.008 -0.582652,-0.008 0,0 0.204914,0.0859 0.550497,0.249531 -0.394332,3.001369 -0.995399,5.949769 -1.837994,8.811829 -3.502985,14.89761 -14.018646,29.06982 -24.399396,46.20578 -0.419907,0.63472 -0.839882,1.27409 -1.259198,1.91774 -10.613148,16.2912 -21.219517,36.06016 -25.066936,59.41389 -4.010217,28.55192 5.491091,54.08611 19.325297,71.46562 14.294092,17.91176 31.838169,26.21113 43.733695,29.81182 12.161699,3.68123 19.438489,3.375 19.438489,3.375 0,0 -6.81268,-2.71754 -16.190808,-9.84851 -9.368658,-7.12274 -20.850841,-18.86027 -27.582765,-35.25015 -6.46776,-15.67868 -8.161935,-34.97861 -2.598142,-51.94869 2.776575,-9.76631 8.404884,-19.24291 14.876299,-29.49021 1.28053,6.72659 4.171357,12.58311 7.503747,17.09243 5.19226,7.10337 11.273029,11.25459 15.618439,13.53734 4.39118,2.30679 7.16033,2.95314 7.16033,2.95314 0,0 -2.28735,-1.73244 -5.42394,-5.23872 -3.157,-3.52908 -6.957918,-8.79109 -9.471648,-15.6712 -2.295586,-6.42885 -3.434601,-14.15121 -1.506156,-20.75297 1.419068,-6.08239 5.679264,-11.86859 9.884524,-18.86484 0.1701,-0.25915 0.33946,-0.52051 0.50934,-0.78329 0.0259,-0.0401 0.0513,-0.0833 0.0772,-0.12357 3.86592,15.3535 10.68777,28.60845 17.77798,39.27187 0.32399,0.55282 0.64893,1.09944 0.97366,1.64118 8.26217,13.78362 16.70204,24.05884 20.12918,34.30064 4.90368,11.91626 4.96541,26.75205 0.97366,39.4622 -4.15932,13.34902 -12.58066,23.70336 -19.87451,30.3095 -7.26529,6.58035 -12.83637,9.4048 -12.83637,9.4048 0,0 6.12618,0.82537 16.75159,-1.59102 10.35855,-2.3558 26.06308,-8.56025 39.36831,-23.75247 12.88459,-14.76253 22.25157,-37.14167 19.23011,-63.03584 -3.1354,-21.07889 -12.01104,-38.63724 -20.91247,-52.1082 -0.35218,-0.53295 -0.70437,-1.05992 -1.05727,-1.58205 -8.44482,-14.2096 -17.14479,-24.70359 -20.17934,-35.22543 -4.43517,-11.31069 -3.44048,-26.13649 0.0424,-39.1072 3.90694,-13.916751 10.6562,-25.089139 16.57152,-32.86908 5.84791,-7.691318 10.31541,-11.713498 10.31541,-11.713498 0,0 -5.90115,0.8119 -15.48725,4.95835 -9.46674,4.094718 -22.98376,11.988599 -34.88458,26.567918 -2.01675,2.435842 -3.97329,5.088462 -5.82396,7.935931 C 115.6256,77.928711 107.26013,59.813211 97.335717,46.488123 84.518539,29.089812 69.507014,18.923382 58.780298,13.332194 47.94061,7.6821513 41.105208,6.1011163 41.105208,6.1011163 Z" />
  </g>
</svg>
